<?xml version="1.0" encoding="utf-8"?>
<!-- Svg Vector Icons : http://www.onlinewebfonts.com/icon -->
<!DOCTYPE svg PUBLIC "-//W3C//DTD SVG 1.1//EN" "http://www.w3.org/Graphics/SVG/1.1/DTD/svg11.dtd">
<svg version="1.1" xmlns="http://www.w3.org/2000/svg" xmlns:xlink="http://www.w3.org/1999/xlink" x="0px" y="0px" viewBox="0 0 256 256" enable-background="new 0 0 256 256" xml:space="preserve">
<metadata> Svg Vector Icons : http://www.onlinewebfonts.com/icon </metadata>
<g><g><g><path fill="#fff" d="M194.8,30.9c-9.2,11.5-17,20.9-17.4,20.9c-0.3,0-1.7-0.6-3.1-1.2c-1.3-0.7-4.8-2.2-7.8-3.3c-20.7-8.1-44.3-9.4-66.2-3.6c-5.7,1.5-14.6,4.8-18.7,6.9c-2.3,1.1-3,1.2-8.2,1.2h-5.7L51.9,32.2L36.2,12.6l-0.3,36.9c-0.3,30.7-0.5,37.3-1.1,39.3c-0.4,1.3-0.7,3.6-0.7,5c0,2-0.4,3.4-1.7,6c-3.6,7.2-6.8,17.3-8.6,27c-1.1,5.8-1.5,20.7-0.8,27.1c2.8,24.4,13.6,46.1,31.5,63.2c15.7,14.9,35.7,24.6,58.1,28.1c7.6,1.1,23.1,1.1,30.7,0c52.3-8,90.1-50.8,90.1-102.2c0-21.1-6.9-42.5-19.2-59.2l-2.3-3.2l-0.1-35.3L211.6,10L194.8,30.9z M96.6,112.8c3.4,1.7,6.3,4.6,8,8.3c1.2,2.6,1.5,3.7,1.5,6.8c0,3.1-0.2,4.2-1.5,6.8c-6.3,13.5-25.4,13.4-31.7,0c-1.1-2.3-1.2-3.4-1.2-6.8c0-3.4,0.2-4.5,1.2-6.8c1.7-3.6,4.1-6.2,7.6-8C85.4,110.5,91.6,110.4,96.6,112.8z M177.2,112.2c5.4,2,9.1,6.2,10.5,12.1c2.3,9.5-4.5,19-14.5,20.4c-7.7,1.1-14.9-2.9-18.3-10c-1-2.2-1.2-3.3-1.2-6.7c0-3.4,0.2-4.5,1.2-6.7c1.8-3.7,4.2-6.3,7.5-8C167.1,110.6,172,110.3,177.2,112.2z M139.1,172.8c-10.9,17.4-10.8,17.4-9.9,18.2c1.3,1,6.3,3.5,8.5,4.3c10.8,3.8,21.9-0.6,26.4-10.5c1.6-3.4,1.7-3.5,4.1-4.3l2.5-0.8l-0.3,2.1c-0.2,1.1-0.9,3.4-1.5,4.9c-6.5,14.7-25.5,19.6-38.6,10l-2.3-1.7l-3.2,2.2c-4.8,3.3-8.5,4.4-14.6,4.4c-4,0-5.7-0.2-8.3-1.2c-6.4-2.2-11.4-6.5-14.5-12.6c-1.6-3.2-2.5-6.3-2-6.9c0.1-0.1,1.2,0,2.4,0.3c2.2,0.5,2.3,0.7,3.7,3.6c2.1,4.4,5.1,7.5,9.2,9.5c4.8,2.3,8.6,2.9,13.5,1.9c3.6-0.7,10.3-3.5,12.5-5.2c1-0.8,1-0.7-9.9-18.2l-2.3-3.7H128h13.4L139.1,172.8z"/></g></g></g>
</svg>